<?xml version="1.0" encoding="UTF-8"?>
<svg width="125px" height="40px" viewBox="0 0 125 40" version="1.1" xmlns="http://www.w3.org/2000/svg" xmlns:xlink="http://www.w3.org/1999/xlink">
    <!-- Generator: Sketch 63.1 (92452) - https://sketch.com -->
    <title>logo_applemusic_onlight</title>
    <desc>Created with Sketch.</desc>
    <defs>
        <linearGradient x1="72.6572811%" y1="90.2096514%" x2="32.846419%" y2="15.2044891%" id="linearGradient-1">
            <stop stop-color="#22C9FD" offset="0%"></stop>
            <stop stop-color="#2ABEFD" offset="4.93%"></stop>
            <stop stop-color="#6B6BFF" offset="38.92%"></stop>
            <stop stop-color="#756AF3" offset="52.71%"></stop>
            <stop stop-color="#8D68D6" offset="55.91%"></stop>
            <stop stop-color="#AC65B2" offset="60.57%"></stop>
            <stop stop-color="#B864A4" offset="63.05%"></stop>
            <stop stop-color="#D56182" offset="73.26%"></stop>
            <stop stop-color="#EC5F67" offset="83.77%"></stop>
            <stop stop-color="#FA5D56" offset="93.04%"></stop>
            <stop stop-color="#FF5D50" offset="100%"></stop>
        </linearGradient>
    </defs>
    <g id="Page-1" stroke="none" stroke-width="1" fill="none" fill-rule="evenodd">
        <g id="Artboard" fill-rule="nonzero">
            <g id="logo_applemusic_onlight">
                <g id="icons" transform="translate(37.000000, 13.000000)" fill="#000000">
                    <g id="Artboard-Copy-3_1_">
                        <g id="US-UK_Apple_Music_lockup_RGB_blk_1_">
                            <g id="_Group_4_1_">
                                <g id="_Group_6_1_">
                                    <g id="_Group_7_1_">
                                        <path d="M7.77584,9.17516 L3.38652,9.17516 L2.33312,12.28752 L0.4738,12.28752 L4.6322,0.77188 L6.56328,0.77188 L10.72168,12.28752 L8.83016,12.28752 L7.77584,9.17516 Z M3.841,7.73904 L7.32044,7.73904 L5.60464,2.68732 L5.5568,2.68732 L3.841,7.73904 Z" id="_Compound_Path_10_1_"></path>
                                        <path d="M19.69076,8.09048 C19.69076,10.70052 18.2942,12.37676 16.1874,12.37676 C15.09812,12.4338 14.07232,11.8634 13.54608,10.90844 L13.50652,10.90844 L13.50652,15.06592 L11.78244,15.06592 L11.78244,3.89252 L13.4504,3.89252 L13.4504,5.29 L13.4826,5.29 C14.03184,4.33964 15.05948,3.76924 16.15612,3.80512 C18.28684,3.80512 19.69076,5.48872 19.69076,8.09048 Z M17.91976,8.09048 C17.91976,6.39124 17.04208,5.27344 15.70072,5.27344 C14.3842,5.27344 13.49824,6.41424 13.49824,8.09048 C13.49824,9.78236 14.3842,10.9158 15.70072,10.9158 C17.04116,10.9158 17.91976,9.80628 17.91976,8.09048 L17.91976,8.09048 Z" id="_Compound_Path_11_1_"></path>
                                        <path d="M28.9248,8.09048 C28.9248,10.70052 27.52824,12.37676 25.42144,12.37676 C24.33216,12.4338 23.30636,11.8634 22.78012,10.90844 L22.74056,10.90844 L22.74056,15.06592 L21.01648,15.06592 L21.01648,3.89252 L22.68444,3.89252 L22.68444,5.29 L22.71664,5.29 C23.26588,4.33964 24.29352,3.76924 25.39016,3.80512 C27.51996,3.80512 28.9248,5.48872 28.9248,8.09048 Z M27.15288,8.09048 C27.15288,6.39124 26.2752,5.27344 24.93384,5.27344 C23.61732,5.27344 22.73136,6.41424 22.73136,8.09048 C22.73136,9.78236 23.61732,10.9158 24.93384,10.9158 C26.2752,10.9158 27.15288,9.80628 27.15288,8.09048 L27.15288,8.09048 Z" id="_Compound_Path_12_1_"></path>
                                        <polygon id="_Compound_Path_13_1_" points="30.314 0.77188 32.03716 0.77188 32.03716 12.28844 30.314 12.28844"></polygon>
                                        <path d="M41.00808,9.82284 C40.61616,11.46412 39.07148,12.56168 37.39248,12.3924 C34.9508,12.3924 33.43372,10.75572 33.43372,8.13096 C33.43372,5.497 34.95816,3.78948 37.32072,3.78948 C39.6428,3.78948 41.10376,5.38568 41.10376,7.93132 L41.10376,8.52196 L35.17436,8.52196 L35.17436,8.62592 C35.11916,9.2506 35.33444,9.86976 35.76684,10.32516 C36.19924,10.78056 36.80552,11.02804 37.43296,11.00412 C38.26924,11.08232 39.05768,10.60208 39.37232,9.82284 L41.00808,9.82284 Z M35.1817172,7.31676 L39.37968,7.31676 C39.41096,6.75464 39.20672,6.2054 38.81572,5.80152 C38.42472,5.39672 37.88284,5.17408 37.32072,5.18604 C36.754,5.18236 36.20844,5.40592 35.80732,5.80612 C35.40528,6.2054 35.1808,6.74912 35.1817172,7.31676 Z" id="_Compound_Path_14_1_"></path>
                                        <polygon id="_Compound_Path_15_1_" points="55.97188 12.28844 55.97188 3.81248 55.91576 3.81248 52.44368 12.20104 51.11888 12.20104 47.63944 3.81248 47.58424 3.81248 47.58424 12.28844 45.95584 12.28844 45.95584 0.77188 48.02216 0.77188 51.75 9.86148 51.8144 9.86148 55.53304 0.77188 57.60856 0.77188 57.60856 12.28844"></polygon>
                                        <path d="M66.7874,12.28844 L65.136,12.28844 L65.136,10.84404 L65.09552,10.84404 C64.64104,11.85604 63.5996,12.47244 62.49376,12.38412 C61.67036,12.43196 60.86812,12.11456 60.30048,11.51564 C59.73284,10.91672 59.45776,10.09884 59.54976,9.28004 L59.54976,3.89252 L61.27384,3.89252 L61.27384,8.94516 C61.27384,10.22212 61.88012,10.90016 63.06876,10.90016 C63.63456,10.91856 64.18104,10.68948 64.56468,10.27272 C64.94832,9.85596 65.13048,9.292 65.06424,8.72988 L65.06424,3.89344 L66.78832,3.89344 L66.7874,12.28844 Z" id="_Compound_Path_16_1_"></path>
                                        <path d="M71.68916,3.79684 C73.54848,3.79684 74.88156,4.82724 74.92112,6.3112 L73.30192,6.3112 C73.22924,5.56876 72.59996,5.11428 71.64224,5.11428 C70.70752,5.11428 70.0856,5.54484 70.0856,6.19988 C70.0856,6.7022 70.50052,7.03708 71.37084,7.25328 L72.78304,7.57988 C74.47492,7.98744 75.1134,8.61028 75.1134,9.8394 C75.1134,11.35556 73.67728,12.39332 71.6266,12.39332 C69.64768,12.39332 68.31368,11.37948 68.18672,9.84676 L69.89424,9.84676 C70.01476,10.6536 70.6606,11.08416 71.70664,11.08416 C72.7352,11.08416 73.38288,10.66096 73.38288,9.99028 C73.38288,9.47232 73.06364,9.19264 72.18596,8.96908 L70.68544,8.602 C69.16928,8.23492 68.40292,7.4612 68.40292,6.29648 C68.40108,4.81068 69.73324,3.79684 71.68916,3.79684 Z" id="_Compound_Path_17_1_"></path>
                                        <path d="M76.45568,1.68176 C76.4474,1.2742 76.6866,0.90252 77.06104,0.74152 C77.43548,0.58052 77.86972,0.66148 78.15952,0.9476 C78.45024,1.23372 78.53856,1.66612 78.38308,2.04332 C78.2276,2.4196 77.8596,2.66524 77.45296,2.6634 C76.90648,2.66708 76.4612,2.22824 76.45568,1.68176 Z M76.59092,3.89252 L78.315,3.89252 L78.315,12.28844 L76.59092,12.28844 L76.59092,3.89252 Z" id="_Compound_Path_18_1_"></path>
                                        <path d="M85.74032,6.78132 C85.58392,5.82912 84.7228,5.15568 83.7614,5.23296 C82.4366,5.23296 81.55892,6.34248 81.55892,8.09048 C81.55892,9.87804 82.44396,10.95628 83.77796,10.95628 C84.72832,11.05104 85.58852,10.38956 85.74124,9.44748 L87.4,9.44748 C87.18564,11.25344 85.57104,12.55892 83.76048,12.39332 C81.36664,12.39332 79.80172,10.75664 79.80172,8.0914 C79.80172,5.48228 81.36572,3.7904 83.74392,3.7904 C85.56736,3.63584 87.18196,4.9634 87.38344,6.78224 L85.74032,6.78132 Z" id="_Compound_Path_19_1_"></path>
                                    </g>
                                </g>
                            </g>
                        </g>
                    </g>
                </g>
                <g id="Group-2_1_" transform="translate(0.000000, 3.000000)">
                    <path d="M23.9005,0.4264 L9.074,0.4264 C7.7337,0.3783 6.3934,0.52 5.0921,0.845 C3.0979,1.4417 1.4742,2.899 0.6643,4.8165 C0.1625,6.3206 -0.0585,7.9027 0.013,9.4861 L0.013,24.3126 C-0.0585,25.896 0.1625,27.4794 0.6643,28.9822 C1.4729,30.8997 3.0966,32.357 5.0908,32.9537 C6.3921,33.2787 7.7324,33.4204 9.0727,33.3736 L23.8992,33.3736 C25.2395,33.4204 26.5798,33.28 27.8811,32.9537 C29.8753,32.357 31.499,30.901 32.3076,28.9822 C32.8094,27.4781 33.0304,25.896 32.9589,24.3126 L32.9589,9.4861 C33.0304,7.9027 32.8094,6.3193 32.3076,4.8165 C31.499,2.899 29.8753,1.4417 27.8811,0.845 C26.5811,0.52 25.2408,0.3783 23.9005,0.4264 Z" id="_Compound_Path__1_" fill="#000000"></path>
                    <path d="M23.9005,0.8879 C25.1966,0.8385 26.4927,0.9737 27.7511,1.2883 C28.5402,1.521 29.276,1.9045 29.9208,2.4167 C30.7788,3.0953 31.4535,3.978 31.8799,4.9855 C32.3583,6.435 32.5689,7.9612 32.5,9.4861 L32.5,24.3126 C32.5689,25.8375 32.3596,27.3637 31.8799,28.8132 C31.4535,29.8207 30.7788,30.7034 29.9208,31.382 C29.2773,31.8942 28.5402,32.2777 27.7511,32.5104 C26.4927,32.825 25.1966,32.9602 23.9005,32.9108 L9.074,32.9108 C7.7779,32.9602 6.4818,32.825 5.2234,32.5104 C4.4343,32.2777 3.6985,31.8942 3.0537,31.382 C2.1957,30.7034 1.521,29.8207 1.0946,28.8132 C0.6162,27.3637 0.4056,25.8375 0.4745,24.3126 L0.4745,9.4861 C0.4056,7.9612 0.6149,6.435 1.0946,4.9855 C1.521,3.978 2.1957,3.0953 3.0537,2.4167 C3.6972,1.9045 4.4343,1.521 5.2234,1.2883 C6.4818,0.9737 7.7779,0.8385 9.074,0.8879 L23.9005,0.8879" id="_Path__1_" fill="#FFFFFF"></path>
                    <g id="_Group_2_1_" transform="translate(6.500000, 5.200000)" fill="url(#linearGradient-1)">
                        <g id="_Clip_Group__1_">
                            <path d="M17.6488,1.1947 C17.6384,0.5941 17.3017,0.1807 16.7141,0.2795 C16.7141,0.2795 7.1851,2.1463 6.0749,2.3777 C5.3547,2.5285 5.1142,2.9796 5.1298,3.7362 C5.1272,3.7999 5.1298,16.0849 5.1298,16.0849 C5.1298,17.3225 4.0807,17.0287 2.6871,17.3797 C0.3198,17.9751 0.2522,19.0216 0.0975,19.3518 C-0.1443,20.6713 0.1638,22.1312 1.9526,22.5602 C2.6871,22.7357 3.146,22.6551 3.8753,22.5147 C5.0544,22.2885 5.6511,21.71 6.1685,20.6284 C6.4116,20.1201 6.435,19.2699 6.435,18.7122 C6.4337,15.1996 6.4337,11.8599 6.4337,8.3473 C6.4337,7.761 6.5962,7.5764 7.1734,7.4607 C9.9957,6.9017 12.8336,6.3115 15.6546,5.7564 C16.289,5.6303 16.3579,5.9709 16.3579,6.6131 C16.3592,9.243 16.3475,13.5447 16.3475,13.9594 C16.3475,15.4414 13.572,14.5288 11.7936,16.172 C11.1696,16.783 11.0604,17.9322 11.2554,18.5601 C11.5557,19.5169 12.1758,20.1084 13.1222,20.3125 C13.7267,20.4438 15.717,20.6622 16.8922,19.2309 C17.6865,18.2624 17.6293,17.6748 17.6293,16.7908 L17.6488,1.1947 Z" id="Path"></path>
                        </g>
                    </g>
                </g>
            </g>
        </g>
    </g>
</svg>