<?xml version="1.0" encoding="utf-8"?>
<!-- Generator: Adobe Illustrator 21.1.0, SVG Export Plug-In . SVG Version: 6.00 Build 0)  -->
<svg version="1.1" xmlns="http://www.w3.org/2000/svg" xmlns:xlink="http://www.w3.org/1999/xlink" x="0px" y="0px"
	 viewBox="0 0 125 40" enable-background="new 0 0 125 40" xml:space="preserve">
<g id="bg" display="none">
	<rect display="inline" fill="#FFFFFF" width="125" height="40"/>
</g>
<g id="icons">
	<g>
		<polygon fill="#A1B306" points="14.137,10.866 16.746,10.866 16.746,21.571 19.942,18.375 23.137,18.428 18.637,22.796 
			23.563,28.707 20.261,28.707 17.119,24.287 16.64,24.606 16.64,28.707 14.137,28.707 		"/>
		<path fill="#A1B306" d="M23.883,18.375h2.503v0.692l0.209-0.197c1.167-1.1,2.969-1.164,4.212-0.15l0,0l-1.225,2.157h0
			c-1.385-1.297-2.848-0.088-3.195,1.065l0,0v6.764h-2.503V18.375z"/>
		<path fill="#A1B306" d="M35.788,18.042c-3.011,0-5.451,2.441-5.451,5.451c0,3.011,2.441,5.451,5.451,5.451
			c3.011,0,5.451-2.441,5.451-5.451C41.239,20.483,38.798,18.042,35.788,18.042z M35.811,26.775c-1.812,0-3.109-1.469-3.109-3.281
			c0-1.812,1.297-3.281,3.109-3.281c1.812,0,3.064,1.469,3.064,3.281C38.874,25.306,37.623,26.775,35.811,26.775z"/>
		<path fill="#525252" d="M78.37,18.042c-3.011,0-5.451,2.441-5.451,5.451c0,3.011,2.441,5.451,5.451,5.451
			c3.011,0,5.451-2.441,5.451-5.451C83.822,20.483,81.381,18.042,78.37,18.042z M78.393,26.775c-1.812,0-3.109-1.469-3.109-3.281
			c0-1.812,1.297-3.281,3.109-3.281c1.812,0,3.064,1.469,3.064,3.281C81.457,25.306,80.205,26.775,78.393,26.775z"/>
		<path fill="#A1B306" d="M60.081,24.373c-0.138-0.374-0.553-0.825-0.908-1.007l-3.147-1.617c-0.253-0.13-0.431-0.378-0.457-0.661
			c-0.008-0.093-0.004-0.187,0.01-0.274c0.046-0.281,0.274-0.492,0.557-0.523c0.487-0.053,1.044,0.214,1.329,0.613
			c0,0,0.169,0.236,0.169,0.236l1.73-1.052l-0.516-0.78c-0.23-0.348-0.745-0.77-1.102-0.986c-2.281-1.378-5.385,1.103-4.212,3.847
			c0.131,0.306,0.311,0.589,0.544,0.835c0.195,0.206,0.412,0.381,0.65,0.515l2.755,1.555c0.093,0.089,0.171,0.193,0.221,0.312
			c0.098,0.233,0.059,0.407,0.034,0.614c-0.177,0.954-1.738,1.018-2.237,0.247l-0.592-0.914c-0.095,0.032-2.095,1.048-2.095,1.048
			l0.237,0.481c1.413,2.873,5.812,2.658,6.999-0.315C60.23,25.871,60.386,25.198,60.081,24.373z"/>
		<path fill="#525252" d="M85.213,18.042h2.46v0.822v0c1.798-1.874,4.894-1.488,6.177,0.771l0,0
			c0.127,0.223,0.193,0.441,0.193,0.731v7.978h-2.377l-0.028-6.922v0c0-1.713-2.548-1.956-3.524-0.554l0,0
			c-0.285,0.359-0.441,0.803-0.441,1.262v6.214h-2.46V18.042z"/>
		<path fill="#525252" d="M104.79,18.042h2.46v0.822l0,0c1.798-1.874,4.894-1.488,6.177,0.771v0
			c0.127,0.223,0.193,0.441,0.193,0.731v7.978h-2.377l-0.028-6.922l0,0c0-1.713-2.548-1.956-3.524-0.554l0,0
			c-0.285,0.359-0.441,0.803-0.441,1.262v6.214h-2.46V18.042z"/>
		<rect x="95.941" y="10.539" fill="#525252" width="2.508" height="17.855"/>
		<rect x="100.423" y="18.042" fill="#525252" width="2.508" height="10.352"/>
		<circle fill="#525252" cx="101.677" cy="13.599" r="1.51"/>
		<path fill="#797979" d="M8.574,29.461l-1.261-1.417c0,0,3.206-2.165,3.206-6.059c0-3.492-1.035-5.205-2.947-6.762l1.316-1.186
			c0,0,3.412,2.422,3.412,7.712C12.301,26.775,8.574,29.461,8.574,29.461z"/>
		<circle fill="#797979" cx="1.51" cy="21.748" r="1.51"/>
		<path fill="#A1B306" d="M52.16,22.952c0-2.711-2.198-4.91-4.91-4.91l0,0c-2.781,0-5.035,2.254-5.035,5.035v1.235
			c0,0.521,0.097,1.038,0.285,1.524v0c1.695,4.376,7.874,3.819,9.66,0.114v0l-1.935-1.236l-0.801,1.058
			c-0.028,0.036-0.056,0.072-0.085,0.107c-1.357,1.623-4.003,0.959-4.519-1.092l-0.175-0.697h7.515V22.952z M44.754,22.137
			l0.388-0.744c0.972-1.484,3.147-1.484,4.12,0l0.388,0.744H44.754z"/>
		<path fill="#A1B306" d="M70.835,22.952c0-2.711-2.198-4.91-4.91-4.91l0,0c-2.781,0-5.035,2.254-5.035,5.035v1.235
			c0,0.521,0.097,1.038,0.285,1.524v0c1.695,4.376,7.874,3.819,9.66,0.114l0,0L68.9,24.715l-0.801,1.058
			c-0.028,0.036-0.056,0.072-0.085,0.107c-1.357,1.623-4.003,0.959-4.519-1.092l-0.175-0.697h7.515V22.952z M63.43,22.137
			l0.388-0.744c0.972-1.484,3.147-1.484,4.12,0l0.388,0.744H63.43z"/>
		<path fill="#525252" d="M125,22.952c0-2.711-2.198-4.91-4.91-4.91l0,0c-2.781,0-5.035,2.254-5.035,5.035v1.235
			c0,0.521,0.097,1.038,0.285,1.524v0c1.695,4.376,7.874,3.819,9.66,0.114v0l-1.935-1.236l-0.801,1.058
			c-0.028,0.036-0.056,0.072-0.085,0.107c-1.357,1.623-4.003,0.959-4.519-1.092l-0.175-0.697H125V22.952z M117.595,22.137
			l0.388-0.744c0.972-1.484,3.147-1.484,4.12,0l0.388,0.744H117.595z"/>
	</g>
</g>
</svg>
