<?xml version="1.0" encoding="utf-8"?>
<!-- Generator: Adobe Illustrator 19.2.0, SVG Export Plug-In . SVG Version: 6.00 Build 0)  -->
<svg version="1.1" xmlns="http://www.w3.org/2000/svg" xmlns:xlink="http://www.w3.org/1999/xlink" x="0px" y="0px"
	 viewBox="0 0 125 40" enable-background="new 0 0 125 40" xml:space="preserve">
<g id="bg" display="none">
	<rect display="inline" fill="#FFFFFF" width="125" height="40"/>
</g>
<g id="icons">
	<g>
		<path fill-rule="evenodd" clip-rule="evenodd" fill="none" d="M66.07,21.956c-0.1,0.381-0.471,0.395-0.743,0.51
			c-0.699,0.297-1.443,0.224-2.178,0.182c-0.105-0.033-0.211-0.068-0.316-0.098c-1.51-0.425-2.696-1.294-3.483-2.653
			c-0.431-0.741-0.803-1.517-1.162-2.296c-0.149-0.322-0.299-0.495-0.684-0.458c-0.437,0.042-0.883,0.022-1.324,0.01
			c-0.315-0.009-0.501,0.121-0.575,0.424c-0.023,0.098-0.056,0.194-0.084,0.287c-0.086-0.019-0.136-0.015-0.167-0.038
			c-1.54-1.067-3.15-0.986-4.772-0.245c-1.281,0.584-2.252,1.528-2.978,2.729c-0.103,0.17-0.221,0.332-0.385,0.578
			c-0.051-0.192-0.089-0.256-0.078-0.31c0.197-0.969,0.4-1.937,0.603-2.905c0.06-0.284-0.018-0.524-0.319-0.536
			c-0.697-0.029-1.4-0.098-2.125,0.06c-0.057,0.242-0.116,0.451-0.155,0.664c-0.158,0.845-0.307,1.691-0.464,2.537
			c-0.413,2.254-0.832,4.506-1.237,6.761c-0.042,0.241-0.005,0.498-0.005,0.736c0.84,0,1.603,0,2.39,0
			c0.329-1.238,0.422-2.497,0.786-3.696c0.073,0.178,0.092,0.348,0.109,0.519c0.177,1.639,1.899,3.573,3.874,3.527
			c1.115-0.026,2.126-0.303,3.079-0.856c0.05-0.028,0.112-0.035,0.17-0.053c0.02,0.183,0.037,0.35,0.059,0.559
			c0.747,0,1.462,0,2.245,0c0.496-2.687,0.99-5.362,1.497-8.103c0.11,0.092,0.175,0.14,0.231,0.195
			c0.67,0.641,1.308,1.316,2.012,1.914c0.856,0.728,1.852,1.181,2.993,1.257c1.355,0.283,3.059-0.27,3.546-1.166
			c-0.131-0.008-0.251-0.017-0.373-0.024c0.195-0.423,0.626-0.455,0.993-0.592c0.037,0.033,0.073,0.065,0.11,0.097
			c-0.192,0.67-0.642,1.151-1.184,1.544c-1.047,0.758-2.233,1.009-3.507,0.89c-1.123-0.105-2.128-0.532-3.078-1.114
			c-0.419-0.255-0.829-0.526-1.384-0.88c0.193,0.558,0.351,0.963,0.473,1.378c0.174,0.586,0.549,0.917,1.141,1.048
			c0.451,0.1,0.886,0.265,1.338,0.367c1.531,0.348,3.023,0.278,4.43-0.491c1.136-0.622,1.941-1.519,2.173-2.834
			c0.049-0.278,0.006-0.573,0.006-0.871c0.094,0.026,0.157,0.028,0.168,0.052c0.033,0.079,0.059,0.165,0.068,0.251
			c0.132,1.116-0.205,2.094-0.917,2.943c-1.079,1.286-2.486,1.947-4.145,2.05c-0.823,0.052-1.655,0.009-2.613,0.009
			c0.222,0.205,0.375,0.324,0.504,0.467c0.567,0.634,1.215,0.815,2.068,0.58c1.371-0.376,2.718-0.761,3.791-1.76
			c0.812-0.755,1.406-1.648,1.622-2.743c0.182-0.911,0.109-1.807-0.388-2.649c0.153,0.065,0.306,0.138,0.354,0.253
			c0.189,0.466,0.439,0.933,0.498,1.419c0.246,2.078-0.644,3.701-2.234,4.936c-0.724,0.561-1.585,0.946-2.383,1.408
			c-0.12,0.069-0.249,0.123-0.373,0.184c0.572,0.216,1.131,0.313,1.687,0.419c0.327,0.062,0.6-0.011,0.842-0.251
			c0.549-0.542,1.135-1.047,1.659-1.612c0.845-0.913,1.362-2.005,1.524-3.24c0.204-1.555-0.135-2.939-1.395-3.991
			c-0.073-0.061-0.125-0.145-0.186-0.219c0.029-0.035,0.058-0.07,0.087-0.105c0.452,0.189,0.832,0.493,1.146,0.878
			c0.965,1.186,1.229,2.559,1.039,4.042c-0.146,1.141-0.65,2.143-1.253,3.101c-0.251,0.4-0.523,0.786-0.785,1.179
			c0.586-0.101,1.111-0.304,1.643-0.492c0.296-0.104,0.475-0.301,0.559-0.598c0.213-0.762,0.479-1.514,0.637-2.287
			c0.329-1.624,0.089-3.175-0.879-4.543c-0.727-1.028-1.657-1.77-3.036-1.654c-0.14,0.012-0.288-0.072-0.43-0.111
			c0.928-0.261,1.494-0.198,2.526,0.192c0.647,0.391,1.226,0.86,1.677,1.475c0.654,0.893,1.043,1.901,1.17,2.986
			c0.172,1.493,0.318,2.998-0.549,4.371c-0.068,0.107-0.043,0.274-0.065,0.454c1.05,0,2.035,0,3.055,0
			c3.191-3.471,6.396-6.957,9.666-10.514c0,0.239,0.018,0.369-0.003,0.493c-0.546,3.08-1.096,6.16-1.641,9.24
			c-0.045,0.247-0.054,0.499-0.083,0.785c0.875,0,1.661,0,2.452,0c2.65-3.502,5.293-6.994,7.937-10.487
			c0.043,0.022,0.084,0.043,0.128,0.064c-0.301,1.728-0.615,3.455-0.897,5.186c-0.282,1.728-0.666,3.439-0.904,5.166
			c0.661,0.154,1.99,0.146,2.522-0.007c0.18-1.01,0.362-2.041,0.568-3.207c0.166,0.47,0.26,0.801,0.395,1.114
			c0.701,1.62,2.157,2.539,3.919,2.494c0.973-0.024,1.855-0.342,2.689-0.818c0.069-0.039,0.149-0.057,0.218-0.082
			c0.031,0.207,0.057,0.391,0.083,0.569c0.76,0,1.458,0,2.202,0c0.076-0.365,0.153-0.704,0.217-1.046
			c0.547-2.946,1.091-5.892,1.629-8.839c0.046-0.248,0.033-0.507,0.05-0.811c-0.791,0-1.504,0-2.226,0
			c-0.09,0.27-0.17,0.504-0.258,0.77c-1.427-1.127-2.964-1.146-4.541-0.571c-1.394,0.507-2.445,1.463-3.266,2.684
			c-0.103,0.151-0.211,0.299-0.316,0.449c0.163-1.488,0.433-2.922,0.694-4.358c0.262-1.44,0.587-2.87,0.778-4.379
			c-0.937,0-1.787,0-2.665,0c-0.846,1.11-1.701,2.233-2.557,3.353c-0.844,1.104-1.684,2.212-2.539,3.307
			c-0.855,1.095-1.674,2.222-2.624,3.243c0.255-1.665,0.554-3.3,0.843-4.935c0.289-1.637,0.621-3.268,0.814-5.01
			c-0.751,0-1.409,0.035-2.061-0.012c-0.495-0.035-0.809,0.142-1.126,0.51c-3.532,4.121-7.079,8.227-10.624,12.337
			c-0.091,0.104-0.2,0.188-0.324,0.302c-0.08-0.432-0.128-0.804-0.22-1.167c-0.345-1.345-0.679-2.699-1.554-3.827
			c-0.82-1.058-1.823-1.846-3.198-2.043c-0.166-0.001-0.332,0.008-0.496-0.005c-0.584-0.045-1.151,0.003-1.688,0.257
			c-0.055,0.026-0.129,0.015-0.195,0.02c-0.022-0.032-0.049-0.061-0.075-0.09c0.595-0.515,1.312-0.717,2.074-0.72
			c1.961-0.006,3.462,0.919,4.572,2.465c0.559,0.78,0.987,1.656,1.476,2.493c0.222-0.522,0.293-1.104,0.309-1.692
			c0.002-0.119-0.053-0.263-0.127-0.358c-1.026-1.28-2.133-2.462-3.72-3.07c-2.238-0.858-4.274-0.303-5.54,1.525
			c-0.036-0.031-0.074-0.062-0.11-0.094c0.262-0.794,0.801-1.359,1.497-1.785c0.668-0.41,1.398-0.624,2.183-0.694
			c1.622-0.144,3.03,0.423,4.364,1.256c0.421,0.262,0.822,0.554,1.232,0.832c-0.12-0.624-0.339-1.193-0.545-1.766
			c-0.106-0.299-0.317-0.462-0.61-0.547c-0.719-0.209-1.426-0.462-2.153-0.629c-1.547-0.352-3.033-0.149-4.393,0.683
			c-1.22,0.746-1.973,1.805-2.006,3.29c-0.004,0.15-0.04,0.299-0.082,0.595c-0.156-0.78-0.177-1.407,0-2.036
			c0.373-1.312,1.259-2.193,2.407-2.84c1.405-0.792,2.937-0.862,4.497-0.74c0.252,0.02,0.504,0.054,0.756,0.082
			c-0.348-0.45-0.758-0.775-1.155-1.113c-0.256-0.219-0.536-0.289-0.859-0.208c-0.768,0.192-1.555,0.329-2.299,0.591
			c-1.579,0.556-2.754,1.551-3.461,3.137c-0.464,1.036-0.537,2.006-0.168,3.046c0.051,0.139,0.058,0.294,0.084,0.441
			c-0.704-0.929-0.93-1.944-0.704-3.066c0.187-0.929,0.581-1.75,1.166-2.488c0.889-1.122,2.105-1.787,3.365-2.39
			c0.124-0.061,0.249-0.125,0.429-0.216c-0.133-0.06-0.185-0.096-0.243-0.107c-0.26-0.053-0.518-0.111-0.779-0.146
			c-1.487-0.203-1.116-0.252-2.16,0.674c-0.845,0.749-1.607,1.58-2.045,2.648c-0.762,1.855-0.819,3.641,0.543,5.281
			c0.051,0.061,0.036,0.177,0.071,0.376c-0.216-0.144-0.35-0.208-0.455-0.307c-0.59-0.563-0.978-1.25-1.178-2.033
			c-0.401-1.567-0.18-3.066,0.585-4.48c0.351-0.648,0.75-1.271,1.203-2.033c-0.582,0.235-1.039,0.431-1.503,0.603
			c-0.276,0.102-0.43,0.294-0.506,0.564c-0.195,0.699-0.417,1.393-0.577,2.1c-0.309,1.354-0.199,2.688,0.42,3.935
			c0.746,1.505,1.884,2.483,3.673,2.466c0.121-0.001,0.244,0.031,0.468,0.062c-1.373,0.351-2.501,0.062-3.509-0.743
			c-1.099-0.879-1.777-2.037-1.98-3.408c-0.141-0.952-0.09-1.933-0.125-2.901c-0.004-0.135-0.02-0.27-0.039-0.493
			c-0.945,0.856-1.641,1.684-1.118,2.972c0.099,0.244,0.149,0.506,0.221,0.761c0.342,1.24,0.934,2.338,1.921,3.178
			c1.306,1.113,2.765,1.624,4.465,0.971C65.898,21.938,65.987,21.958,66.07,21.956z M42.648,15.742
			c-0.158,0.704-0.318,1.41-0.486,2.154c-0.101-0.05-0.18-0.078-0.247-0.124c-1.109-0.774-2.333-0.895-3.602-0.574
			c-1.984,0.502-3.356,1.775-4.32,3.535c-0.104,0.188-0.199,0.381-0.328,0.63c-0.071-0.35-0.127-0.629-0.184-0.906
			c-0.557-2.739-3.138-3.673-5.086-3.308c-1.936,0.363-3.448,1.391-4.569,3.006c-0.074,0.106-0.157,0.204-0.332,0.424
			c0.515-3.014,1.093-5.853,1.565-8.775c-0.921,0-1.746,0-2.611,0c-0.064,0.078-0.151,0.175-0.232,0.278
			c-1.319,1.712-2.634,3.427-3.958,5.135c-1.041,1.342-2.092,2.676-3.146,4.008c-0.121,0.152-0.199,0.42-0.498,0.317
			c0.589-2.483,1.687-9.209,1.57-9.787c-0.617,0-1.254,0.024-1.886-0.009c-0.373-0.02-0.609,0.123-0.841,0.395
			c-1.099,1.294-2.214,2.575-3.327,3.86c-3.188,3.688-6.378,7.376-9.565,11.066C0.395,27.263,0.244,27.473,0,27.783
			c0.307,0.073,0.5,0.153,0.693,0.159c0.619,0.017,1.238-0.02,1.853,0.015c0.485,0.027,0.812-0.14,1.132-0.509
			c2.933-3.385,5.886-6.751,8.831-10.127c0.08-0.093,0.118-0.226,0.176-0.34c0.048,0.04,0.095,0.08,0.143,0.12
			c-0.311,1.797-0.611,3.597-0.934,5.392c-0.32,1.786-0.663,3.567-1.006,5.404c0.887,0,1.674,0,2.514,0
			c0.877-1.193,1.775-2.419,2.676-3.643c0.891-1.207,1.783-2.412,2.678-3.615c0.892-1.2,1.773-2.409,2.743-3.55
			c-0.164,1.221-0.368,2.413-0.567,3.605c-0.206,1.217-0.41,2.434-0.612,3.651c-0.195,1.178-0.517,2.335-0.675,3.548
			c0.877,0,1.659,0,2.482,0c0.237-1.264,0.468-2.497,0.699-3.729c0.107,0.144,0.154,0.287,0.17,0.434
			c0.245,2.191,2.159,3.57,4.012,3.614c2.196,0.053,3.913-0.879,5.203-2.631c0.168-0.229,0.321-0.478,0.436-0.738
			c0.157-0.35,0.024-0.549-0.366-0.568c-0.396-0.019-0.795,0.021-1.191-0.009c-0.41-0.032-0.709,0.103-0.985,0.407
			c-0.518,0.568-1.17,0.929-1.927,1.089c-1.428,0.303-2.682-0.57-2.868-2.03c2.641,0,5.277,0,7.93,0
			c0.039,0.331,0.078,0.657,0.117,0.983c0.195,1.633,1.88,3.623,4.013,3.527c1.065-0.048,2.032-0.334,2.946-0.857
			c0.048-0.027,0.108-0.03,0.165-0.045c0.021,0.188,0.039,0.356,0.06,0.556c0.752,0,1.469,0,2.21,0
			c0.047-0.165,0.101-0.308,0.129-0.456c0.483-2.621,0.969-5.243,1.447-7.866c0.233-1.278,0.449-2.558,0.673-3.838
			c0.09-0.426,0.2-0.849,0.264-1.279c0.056-0.371-0.049-0.502-0.399-0.516c-0.501-0.019-1.005-0.007-1.506-0.002
			c-0.256,0.002-0.405,0.136-0.451,0.387C42.821,14.8,42.735,15.271,42.648,15.742z M110.212,19.404
			c-0.021,0.218-0.028,0.387-0.056,0.552c-0.279,1.694-0.563,3.388-0.845,5.082c-0.131,0.782-0.267,1.563-0.392,2.345
			c-0.064,0.404,0.009,0.535,0.346,0.545c0.656,0.02,1.313,0.006,2.046,0.006c0.281-1.452,0.553-2.854,0.855-4.407
			c0.961,1.567,1.83,2.988,2.683,4.38c1.646,0,3.227,0,4.882,0c0.526-2.825,1.045-5.626,1.575-8.473c0.773,0,1.494,0,2.177,0
			c0.073-0.112,0.131-0.163,0.143-0.223c0.096-0.474,0.189-0.95,0.268-1.427c0.087-0.519-0.009-0.625-0.534-0.627
			c-0.521-0.002-1.045,0-1.591,0c0.029-1.096,0.464-2.07,0.43-3.151c-0.864-0.07-1.659-0.142-2.459,0.038
			c-0.207,1.067-0.401,2.075-0.602,3.114c-0.209,0-0.362,0-0.514,0c-0.966,0-1.934,0.013-2.898-0.007
			c-0.342-0.007-0.574,0.093-0.786,0.367c-0.526,0.679-1.083,1.336-1.628,1.999c-0.134,0.162-0.278,0.316-0.501,0.571
			c0.018-0.229,0.017-0.316,0.033-0.399c0.314-1.711,0.634-3.421,0.947-5.131c0.089-0.479-0.004-0.594-0.489-0.612
			c-0.44-0.015-0.881-0.027-1.322-0.014c-0.208,0.006-0.412,0.075-0.618,0.115c-0.199,1.033-0.387,2.002-0.578,3.001
			c-0.884-0.081-1.652,0.228-2.401,0.635c-0.057-0.172-0.105-0.325-0.158-0.486c-0.73,0-1.427,0-2.159,0
			c-0.053,0.195-0.106,0.359-0.139,0.526c-0.3,1.624-0.601,3.247-0.896,4.872c-0.278,1.539-0.558,3.077-0.824,4.617
			c-0.038,0.217-0.006,0.446-0.006,0.686c0.762,0,1.435,0,2.122,0c0.052-0.154,0.105-0.273,0.131-0.398
			c0.355-1.748,0.695-3.498,1.067-5.242c0.114-0.533,0.253-1.081,0.499-1.56C108.449,19.857,109.19,19.44,110.212,19.404z
			 M48.392,14.101c-0.877-0.31-1.686-0.13-2.538-0.101c-0.153,0.833-0.313,1.606-0.431,2.386c-0.053,0.344,0.092,0.463,0.469,0.469
			c0.508,0.009,1.014,0.002,1.521,0.01c0.276,0.005,0.472-0.079,0.527-0.378C48.08,15.731,48.226,14.976,48.392,14.101z
			 M123.812,13.875c-0.627,0.006-1.174,0.569-1.159,1.188c0.016,0.622,0.581,1.174,1.198,1.168c0.611-0.006,1.158-0.579,1.149-1.208
			C124.991,14.38,124.462,13.869,123.812,13.875z"/>
		<path fill-rule="evenodd" clip-rule="evenodd" fill="#E20815" d="M44.999,15.74c-0.224,1.28-0.439,2.56-0.673,3.838
			c-0.477,2.623-0.964,5.245-1.447,7.866c-0.028,0.147-0.082,0.291-0.129,0.456c-0.741,0-1.458,0-2.21,0
			c-0.021-0.201-0.039-0.368-0.06-0.556c-0.057,0.016-0.117,0.018-0.165,0.045c-0.914,0.523-1.881,0.809-2.946,0.857
			c-2.133,0.096-3.818-1.894-4.013-3.527c-0.039-0.326-0.078-0.652-0.117-0.983c-2.652,0-5.289,0-7.93,0
			c0.187,1.459,1.44,2.332,2.868,2.03c0.757-0.16,1.409-0.521,1.927-1.089c0.276-0.304,0.575-0.439,0.985-0.407
			c0.396,0.03,0.795-0.011,1.191,0.009c0.39,0.019,0.523,0.217,0.366,0.568c-0.115,0.259-0.268,0.508-0.436,0.738
			c-1.29,1.752-3.007,2.683-5.203,2.631c-1.853-0.044-3.767-1.423-4.012-3.614c-0.016-0.146-0.062-0.289-0.17-0.434
			c-0.231,1.232-0.462,2.464-0.699,3.729c-0.823,0-1.606,0-2.482,0c0.157-1.213,0.479-2.37,0.675-3.548
			c0.202-1.218,0.406-2.435,0.612-3.651c0.199-1.192,0.403-2.384,0.567-3.605c-0.97,1.141-1.851,2.35-2.743,3.55
			c-0.895,1.203-1.786,2.409-2.678,3.615c-0.901,1.223-1.799,2.45-2.676,3.643c-0.84,0-1.626,0-2.514,0
			c0.344-1.837,0.686-3.618,1.006-5.404c0.323-1.795,0.623-3.595,0.934-5.392c-0.049-0.04-0.096-0.08-0.143-0.12
			c-0.058,0.114-0.096,0.247-0.176,0.34c-2.944,3.376-5.897,6.743-8.831,10.127c-0.32,0.369-0.647,0.536-1.132,0.509
			c-0.615-0.035-1.234,0.002-1.853-0.015C0.5,27.936,0.307,27.856,0,27.783c0.244-0.31,0.395-0.52,0.564-0.714
			c3.186-3.69,6.376-7.377,9.565-11.066c1.113-1.285,2.228-2.566,3.327-3.86c0.232-0.273,0.469-0.415,0.841-0.395
			c0.633,0.033,1.269,0.009,1.886,0.009c0.117,0.577-0.981,7.303-1.57,9.787c0.299,0.103,0.377-0.165,0.498-0.317
			c1.054-1.332,2.106-2.666,3.146-4.008c1.325-1.708,2.64-3.423,3.958-5.135c0.081-0.103,0.168-0.201,0.232-0.278
			c0.865,0,1.691,0,2.611,0c-0.471,2.922-1.049,5.761-1.565,8.775c0.175-0.221,0.258-0.318,0.332-0.424
			c1.121-1.615,2.633-2.644,4.569-3.006c1.947-0.366,4.528,0.569,5.086,3.308c0.057,0.278,0.112,0.556,0.184,0.906
			c0.129-0.249,0.225-0.442,0.328-0.63c0.963-1.76,2.336-3.034,4.32-3.535c1.269-0.321,2.493-0.2,3.602,0.574
			c0.067,0.046,0.146,0.074,0.247,0.124c0.168-0.745,0.328-1.45,0.486-2.154c0.079-0.057,0.207-0.099,0.227-0.172
			c0.069-0.246,0.118-0.501,0.142-0.756c0.031-0.317,0.182-0.58,0.476-0.617c0.502-0.062,1.035-0.187,1.531,0.2
			c-0.029,0.183-0.051,0.372-0.089,0.558C44.879,15.225,44.766,15.495,44.999,15.74z M35.612,23.357
			c-0.002,1.59,1.118,2.599,2.688,2.418c1.71-0.197,3.288-1.901,3.373-3.629c0.068-1.408-1.045-2.594-2.462-2.604
			C37.288,19.528,35.53,21.79,35.612,23.357z M31.073,21.265c-0.215-0.734-0.612-1.212-1.221-1.491
			c-1.252-0.573-3.165,0.197-3.721,1.491C27.757,21.265,29.379,21.265,31.073,21.265z"/>
		<path fill-rule="evenodd" clip-rule="evenodd" fill="#E20815" d="M68.446,17.859c1.375,0.197,2.378,0.985,3.198,2.043
			c0.875,1.127,1.209,2.481,1.554,3.827c0.092,0.362,0.14,0.735,0.22,1.167c0.124-0.114,0.233-0.199,0.324-0.302
			c3.545-4.109,7.092-8.216,10.624-12.337c0.316-0.368,0.631-0.545,1.126-0.51c0.652,0.046,1.31,0.012,2.061,0.012
			c-0.193,1.743-0.525,3.374-0.814,5.01c-0.289,1.635-0.589,3.269-0.843,4.935c0.95-1.021,1.769-2.148,2.624-3.243
			c0.855-1.095,1.695-2.203,2.539-3.307c0.856-1.12,1.71-2.243,2.557-3.353c0.878,0,1.728,0,2.665,0
			c-0.191,1.509-0.516,2.939-0.778,4.379c-0.261,1.437-0.531,2.87-0.694,4.358c0.105-0.15,0.214-0.298,0.316-0.449
			c0.821-1.221,1.872-2.177,3.266-2.684c1.578-0.574,3.114-0.556,4.541,0.571c0.088-0.266,0.168-0.499,0.258-0.77
			c0.721,0,1.435,0,2.226,0c-0.017,0.305-0.004,0.563-0.05,0.811c-0.538,2.947-1.083,5.893-1.629,8.839
			c-0.063,0.342-0.141,0.681-0.217,1.046c-0.744,0-1.442,0-2.202,0c-0.026-0.178-0.052-0.362-0.083-0.569
			c-0.068,0.025-0.148,0.043-0.218,0.082c-0.835,0.476-1.716,0.794-2.689,0.818c-1.762,0.044-3.219-0.874-3.919-2.494
			c-0.136-0.313-0.229-0.644-0.395-1.114c-0.206,1.166-0.389,2.196-0.568,3.207c-0.532,0.154-1.862,0.162-2.522,0.007
			c0.238-1.727,0.622-3.439,0.904-5.166c0.282-1.731,0.596-3.458,0.897-5.186c-0.044-0.021-0.085-0.042-0.128-0.064
			c-2.644,3.492-5.287,6.985-7.937,10.487c-0.791,0-1.578,0-2.452,0c0.029-0.286,0.038-0.539,0.083-0.785
			c0.545-3.08,1.095-6.16,1.641-9.24c0.021-0.123,0.003-0.254,0.003-0.493c-3.27,3.557-6.475,7.043-9.666,10.514
			c-1.02,0-2.005,0-3.055,0c0.022-0.18-0.003-0.347,0.065-0.454c0.867-1.373,0.72-2.878,0.549-4.371
			c-0.127-1.085-0.516-2.093-1.17-2.986c-0.451-0.615-1.03-1.084-1.677-1.475c-0.102-0.119-0.184-0.272-0.312-0.348
			c-0.162-0.097-0.361-0.131-0.634-0.222c0.164-0.035,0.229-0.036,0.281-0.063C68.366,17.956,68.403,17.901,68.446,17.859z
			 M99.963,19.53c-0.28,0.049-0.567,0.074-0.839,0.153c-1.404,0.405-2.652,2.005-2.727,3.48c-0.094,1.787,1.196,2.908,2.955,2.566
			c1.394-0.269,2.846-1.803,3.068-3.29C102.625,21.062,101.806,19.52,99.963,19.53z"/>
		<path fill-rule="evenodd" clip-rule="evenodd" fill="#E20815" d="M110.212,19.404c-1.021,0.035-1.763,0.452-2.193,1.294
			c-0.246,0.479-0.385,1.027-0.499,1.56c-0.372,1.743-0.712,3.494-1.067,5.242c-0.025,0.125-0.079,0.245-0.131,0.398
			c-0.687,0-1.361,0-2.122,0c0-0.24-0.032-0.47,0.006-0.686c0.265-1.54,0.546-3.079,0.824-4.617
			c0.295-1.625,0.596-3.248,0.896-4.872c0.032-0.167,0.086-0.331,0.139-0.526c0.732,0,1.429,0,2.159,0
			c0.053,0.161,0.102,0.314,0.158,0.486c0.75-0.407,1.517-0.716,2.401-0.635c0.191-0.999,0.379-1.968,0.578-3.001
			c0.206-0.04,0.41-0.109,0.618-0.115c0.44-0.013,0.881-0.001,1.322,0.014c0.485,0.017,0.578,0.132,0.489,0.612
			c-0.313,1.71-0.633,3.421-0.947,5.131c-0.017,0.083-0.016,0.17-0.033,0.399c0.223-0.255,0.367-0.409,0.501-0.571
			c0.546-0.663,1.102-1.32,1.628-1.999c0.212-0.274,0.444-0.374,0.786-0.367c0.965,0.02,1.932,0.007,2.898,0.007
			c0.151,0,0.305,0,0.514,0c0.201-1.038,0.395-2.046,0.602-3.114c0.8-0.179,1.595-0.108,2.459-0.038
			c0.033,1.081-0.401,2.055-0.43,3.151c0.547,0,1.07-0.001,1.591,0c0.525,0.002,0.621,0.108,0.534,0.627
			c-0.079,0.477-0.173,0.953-0.268,1.427c-0.012,0.06-0.069,0.11-0.143,0.223c-0.683,0-1.404,0-2.177,0
			c-0.529,2.847-1.049,5.649-1.575,8.473c-1.655,0-3.236,0-4.882,0c-0.852-1.392-1.722-2.813-2.683-4.38
			c-0.302,1.553-0.574,2.955-0.855,4.407c-0.733,0-1.39,0.014-2.046-0.006c-0.338-0.01-0.411-0.141-0.346-0.545
			c0.126-0.782,0.262-1.563,0.392-2.345c0.282-1.694,0.566-3.388,0.845-5.082C110.183,19.791,110.19,19.623,110.212,19.404z
			 M117.595,18.191c-0.047-0.017-0.094-0.033-0.141-0.049c-1.056,1.286-2.112,2.572-3.153,3.84c1.078,1.992,2.701,4.56,3.06,4.846
			c0.447-2.439,0.893-4.874,1.35-7.372c-0.271,0-0.466,0.005-0.66-0.001c-0.546-0.014-0.609-0.091-0.528-0.619
			C117.558,18.623,117.573,18.406,117.595,18.191z"/>
		<path fill-rule="evenodd" clip-rule="evenodd" fill="#E20815" d="M62.885,23.157c-1.141-0.076-2.137-0.529-2.993-1.257
			c-0.704-0.598-1.342-1.273-2.012-1.914c-0.057-0.056-0.121-0.103-0.231-0.195c-0.507,2.741-1.001,5.416-1.497,8.103
			c-0.783,0-1.498,0-2.245,0c-0.021-0.209-0.038-0.376-0.059-0.559c-0.058,0.018-0.12,0.025-0.17,0.053
			c-0.953,0.553-1.964,0.83-3.079,0.856c-1.976,0.047-3.698-1.887-3.874-3.527c-0.018-0.171-0.036-0.341-0.109-0.519
			c-0.364,1.199-0.457,2.458-0.786,3.696c-0.787,0-1.55,0-2.39,0c0-0.238-0.037-0.495,0.005-0.736
			c0.405-2.255,0.824-4.508,1.237-6.761c0.156-0.846,0.306-1.692,0.464-2.537c0.039-0.213,0.099-0.422,0.155-0.664
			c0.725-0.158,1.428-0.088,2.125-0.06c0.302,0.013,0.38,0.252,0.319,0.536c-0.203,0.967-0.406,1.936-0.603,2.905
			c-0.011,0.054,0.027,0.119,0.078,0.31c0.164-0.246,0.281-0.408,0.385-0.578c0.726-1.201,1.698-2.145,2.978-2.729
			c1.621-0.741,3.232-0.822,4.772,0.245c0.031,0.022,0.081,0.019,0.167,0.038c0.028-0.093,0.06-0.189,0.084-0.287
			c0.074-0.303,0.26-0.433,0.575-0.424c0.44,0.012,0.886,0.032,1.324-0.01c0.386-0.038,0.535,0.136,0.684,0.458
			c0.358,0.779,0.73,1.556,1.162,2.296c0.787,1.359,1.973,2.228,3.483,2.653c0.105,0.03,0.211,0.065,0.316,0.098
			c0.079,0.081,0.15,0.22,0.238,0.232c0.245,0.032,0.498,0.011,0.746,0.011c0,0.045,0,0.089,0,0.134
			c-0.26,0-0.519-0.015-0.779,0.006C63.196,23.044,63.041,23.113,62.885,23.157z M52.451,19.564c0,0-0.155,0.003-0.307,0.022
			c-0.108,0.014-0.216,0.04-0.32,0.073c-1.496,0.482-2.341,1.553-2.739,3.03c-0.195,0.723-0.049,1.395,0.3,2.033
			c0.239,0.439,0.576,0.789,1.073,0.92c0.909,0.239,1.788,0.169,2.603-0.338c1.018-0.636,1.68-1.545,1.948-2.711
			C55.306,21.291,54.555,19.53,52.451,19.564z"/>
		<path fill-rule="evenodd" clip-rule="evenodd" fill="#E20E18" d="M68.446,17.859c-0.043,0.042-0.08,0.097-0.134,0.124
			c-0.052,0.028-0.117,0.029-0.281,0.063c0.272,0.091,0.472,0.125,0.634,0.222c0.129,0.076,0.211,0.229,0.312,0.348
			c-1.033-0.39-1.598-0.453-2.526-0.192c0.142,0.04,0.291,0.123,0.43,0.111c1.379-0.116,2.309,0.626,3.036,1.654
			c0.967,1.368,1.208,2.919,0.879,4.543c-0.158,0.774-0.425,1.525-0.637,2.287c-0.084,0.298-0.263,0.494-0.559,0.598
			c-0.532,0.188-1.057,0.391-1.643,0.492c0.262-0.393,0.534-0.78,0.785-1.179c0.603-0.958,1.107-1.96,1.253-3.101
			c0.19-1.483-0.073-2.856-1.039-4.042c-0.314-0.385-0.694-0.688-1.146-0.878c-0.029,0.036-0.058,0.07-0.087,0.105
			c0.061,0.073,0.113,0.158,0.186,0.219c1.26,1.052,1.599,2.436,1.395,3.991c-0.162,1.235-0.679,2.327-1.524,3.24
			c-0.524,0.564-1.111,1.069-1.659,1.612c-0.242,0.24-0.515,0.313-0.842,0.251c-0.555-0.106-1.115-0.204-1.687-0.419
			c0.124-0.061,0.253-0.114,0.373-0.184c0.797-0.461,1.658-0.847,2.383-1.408c1.589-1.235,2.48-2.858,2.234-4.936
			c-0.059-0.487-0.308-0.954-0.498-1.419c-0.048-0.116-0.201-0.188-0.354-0.253c0.497,0.842,0.569,1.738,0.388,2.649
			c-0.217,1.095-0.81,1.988-1.622,2.743c-1.074,0.999-2.421,1.383-3.791,1.76c-0.852,0.234-1.5,0.054-2.068-0.58
			c-0.129-0.143-0.282-0.262-0.504-0.467c0.959,0,1.79,0.043,2.613-0.009c1.658-0.103,3.066-0.764,4.145-2.05
			c0.712-0.848,1.049-1.826,0.917-2.943c-0.01-0.086-0.035-0.172-0.068-0.251c-0.011-0.024-0.074-0.025-0.168-0.052
			c0,0.299,0.043,0.593-0.006,0.871c-0.232,1.315-1.037,2.212-2.173,2.834c-1.407,0.769-2.899,0.839-4.43,0.491
			c-0.452-0.102-0.887-0.267-1.338-0.367c-0.593-0.131-0.967-0.462-1.141-1.048c-0.122-0.415-0.28-0.819-0.473-1.378
			c0.555,0.354,0.965,0.624,1.384,0.88c0.95,0.582,1.955,1.009,3.078,1.114c1.275,0.12,2.46-0.132,3.507-0.89
			c0.542-0.393,0.992-0.875,1.184-1.544c0.033-0.117,0.068-0.234,0.102-0.351c-0.037-0.01-0.073-0.02-0.108-0.03
			c-0.035,0.095-0.068,0.189-0.104,0.284c-0.367,0.137-0.797,0.169-0.993,0.592l0.012-0.011c-0.083,0.002-0.173-0.018-0.247,0.009
			c-1.7,0.653-3.159,0.142-4.465-0.971c-0.987-0.84-1.579-1.938-1.921-3.178c-0.071-0.255-0.122-0.518-0.221-0.761
			c-0.523-1.289,0.173-2.117,1.118-2.972c0.019,0.224,0.035,0.359,0.039,0.493c0.035,0.968-0.016,1.949,0.125,2.901
			c0.203,1.371,0.88,2.529,1.98,3.408c1.008,0.806,2.137,1.094,3.509,0.743c-0.224-0.031-0.347-0.063-0.468-0.062
			c-1.789,0.018-2.928-0.961-3.673-2.466c-0.619-1.248-0.729-2.582-0.42-3.935c0.16-0.707,0.382-1.401,0.577-2.1
			c0.076-0.27,0.229-0.462,0.506-0.564c0.465-0.172,0.922-0.368,1.503-0.603c-0.453,0.762-0.851,1.385-1.203,2.033
			c-0.764,1.414-0.986,2.912-0.585,4.48c0.2,0.783,0.589,1.471,1.178,2.033c0.104,0.099,0.239,0.163,0.455,0.307
			c-0.035-0.199-0.02-0.315-0.071-0.376c-1.362-1.64-1.305-3.426-0.543-5.281c0.438-1.068,1.2-1.899,2.045-2.648
			c1.044-0.925,0.674-0.877,2.16-0.674c0.261,0.036,0.519,0.093,0.779,0.146c0.058,0.012,0.11,0.048,0.243,0.107
			c-0.181,0.091-0.305,0.156-0.429,0.216c-1.26,0.603-2.476,1.268-3.365,2.39c-0.585,0.738-0.978,1.559-1.166,2.488
			c-0.226,1.122,0,2.136,0.704,3.066c-0.026-0.147-0.033-0.302-0.084-0.441c-0.369-1.041-0.296-2.01,0.168-3.046
			c0.707-1.586,1.881-2.582,3.461-3.137c0.744-0.262,1.531-0.399,2.299-0.591c0.323-0.081,0.603-0.01,0.859,0.208
			c0.397,0.338,0.806,0.663,1.155,1.113c-0.252-0.028-0.504-0.062-0.756-0.082c-1.56-0.122-3.093-0.052-4.497,0.74
			c-1.148,0.647-2.034,1.528-2.407,2.84c-0.177,0.629-0.156,1.257,0,2.036c0.042-0.296,0.078-0.445,0.082-0.595
			c0.033-1.485,0.786-2.544,2.006-3.29c1.36-0.833,2.846-1.036,4.393-0.683c0.727,0.166,1.435,0.419,2.153,0.629
			c0.293,0.085,0.504,0.248,0.61,0.547c0.206,0.573,0.425,1.142,0.545,1.766c-0.41-0.278-0.811-0.57-1.232-0.832
			c-1.333-0.833-2.741-1.4-4.364-1.256c-0.785,0.07-1.515,0.285-2.183,0.694c-0.695,0.426-1.235,0.991-1.497,1.785
			c-0.054,0.092-0.108,0.185-0.163,0.276c0.035,0.021,0.07,0.042,0.106,0.064c0.055-0.082,0.11-0.164,0.167-0.246
			c1.266-1.828,3.301-2.383,5.54-1.525c1.587,0.608,2.694,1.789,3.72,3.07c0.074,0.095,0.129,0.239,0.127,0.358
			c-0.017,0.588-0.088,1.17-0.309,1.692c-0.489-0.837-0.917-1.713-1.476-2.493c-1.111-1.546-2.611-2.471-4.572-2.465
			c-0.762,0.002-1.479,0.205-2.074,0.72c-0.068,0.057-0.138,0.115-0.206,0.173c0.024,0.028,0.048,0.057,0.073,0.085
			c0.07-0.056,0.14-0.112,0.208-0.168c0.066-0.006,0.141,0.006,0.195-0.02c0.537-0.253,1.104-0.302,1.688-0.257
			C68.114,17.867,68.28,17.858,68.446,17.859z M64.009,20.684c-0.025,0.049-0.048,0.099-0.073,0.148
			c0.134,0.068,0.266,0.134,0.399,0.201c0.024-0.051,0.049-0.102,0.072-0.153C64.274,20.815,64.141,20.749,64.009,20.684z
			 M67.166,18.815c-0.002,0.023-0.002,0.046-0.004,0.07c0.154,0.018,0.308,0.038,0.463,0.056c0.002-0.042,0.003-0.083,0.004-0.126
			C67.475,18.815,67.319,18.815,67.166,18.815z M64.808,21.224c0.018-0.044,0.037-0.087,0.056-0.131
			c-0.121-0.023-0.243-0.047-0.364-0.07c-0.007,0.034-0.013,0.067-0.018,0.102C64.59,21.157,64.699,21.19,64.808,21.224z"/>
		<path fill-rule="evenodd" clip-rule="evenodd" fill="#E20815" d="M48.392,14.101c-0.166,0.875-0.311,1.63-0.453,2.387
			c-0.056,0.299-0.251,0.383-0.527,0.378c-0.507-0.008-1.013-0.001-1.521-0.01c-0.377-0.006-0.521-0.125-0.469-0.469
			c0.118-0.78,0.278-1.553,0.431-2.386C46.706,13.971,47.515,13.79,48.392,14.101z"/>
		<path fill-rule="evenodd" clip-rule="evenodd" fill="#E20E18" d="M123.812,13.875c0.65-0.006,1.179,0.504,1.188,1.148
			c0.009,0.628-0.538,1.202-1.149,1.208c-0.617,0.006-1.182-0.546-1.198-1.168C122.638,14.444,123.185,13.882,123.812,13.875z
			 M123.27,15.741c0.352,0.312,0.708,0.38,1.066,0.01c0.463-0.382,0.546-0.88,0.214-1.289c-0.333-0.412-0.812-0.441-1.316-0.079
			C122.767,14.937,122.773,15.208,123.27,15.741z"/>
		<path fill-rule="evenodd" clip-rule="evenodd" fill="#E20E18" d="M62.885,23.157c0.156-0.044,0.311-0.113,0.47-0.126
			c0.26-0.02,0.519-0.006,0.779-0.006c0-0.044,0-0.089,0-0.134c-0.248,0-0.501,0.021-0.746-0.011
			c-0.088-0.012-0.159-0.151-0.238-0.232c0.735,0.042,1.479,0.115,2.178-0.182c0.272-0.115,0.643-0.129,0.743-0.51l-0.012,0.011
			c0.122,0.008,0.242,0.016,0.373,0.024C65.944,22.887,64.24,23.44,62.885,23.157z"/>
		<path fill-rule="evenodd" clip-rule="evenodd" fill="#E20E18" d="M44.999,15.74c-0.233-0.245-0.12-0.515-0.064-0.784
			c0.038-0.186,0.06-0.375,0.089-0.558c-0.496-0.388-1.029-0.263-1.531-0.2c-0.295,0.037-0.445,0.3-0.476,0.617
			c-0.023,0.255-0.072,0.51-0.142,0.756c-0.02,0.073-0.148,0.115-0.227,0.172c0.087-0.472,0.174-0.942,0.259-1.413
			c0.046-0.25,0.195-0.385,0.451-0.387c0.502-0.004,1.006-0.017,1.506,0.002c0.35,0.014,0.455,0.145,0.399,0.516
			C45.199,14.892,45.089,15.314,44.999,15.74z"/>
		<path fill-rule="evenodd" clip-rule="evenodd" fill="none" d="M35.612,23.357c-0.082-1.566,1.676-3.828,3.599-3.815
			c1.417,0.01,2.53,1.196,2.462,2.604c-0.085,1.728-1.662,3.432-3.373,3.629C36.73,25.955,35.61,24.947,35.612,23.357z"/>
		<path fill-rule="evenodd" clip-rule="evenodd" fill="none" d="M31.073,21.265c-1.694,0-3.316,0-4.943,0
			c0.556-1.294,2.469-2.064,3.721-1.491C30.461,20.053,30.858,20.531,31.073,21.265z"/>
		<path fill-rule="evenodd" clip-rule="evenodd" fill="none" d="M99.963,19.53c1.843-0.01,2.662,1.532,2.457,2.909
			c-0.223,1.487-1.674,3.02-3.068,3.29c-1.759,0.342-3.049-0.779-2.955-2.566c0.075-1.475,1.324-3.075,2.727-3.48
			C99.395,19.604,99.682,19.579,99.963,19.53z"/>
		<path fill-rule="evenodd" clip-rule="evenodd" fill="none" d="M117.595,18.191c-0.022,0.215-0.037,0.432-0.071,0.645
			c-0.081,0.528-0.017,0.605,0.528,0.619c0.194,0.006,0.388,0.001,0.66,0.001c-0.457,2.498-0.903,4.933-1.35,7.372
			c-0.359-0.287-1.983-2.854-3.06-4.846c1.041-1.268,2.097-2.554,3.153-3.84C117.502,18.158,117.549,18.174,117.595,18.191z"/>
		<path fill-rule="evenodd" clip-rule="evenodd" fill="none" d="M52.451,19.564c2.105-0.034,2.855,1.727,2.557,3.029
			c-0.268,1.166-0.93,2.075-1.948,2.711c-0.814,0.507-1.694,0.577-2.603,0.338c-0.497-0.13-0.834-0.481-1.073-0.92
			c-0.348-0.638-0.495-1.31-0.3-2.033c0.398-1.477,1.244-2.547,2.739-3.03c0.104-0.033,0.212-0.059,0.32-0.073
			C52.295,19.568,52.451,19.564,52.451,19.564z"/>
		<path fill-rule="evenodd" clip-rule="evenodd" fill="none" d="M64.009,20.684c0.133,0.065,0.265,0.131,0.398,0.197
			c-0.023,0.051-0.048,0.102-0.072,0.153c-0.133-0.067-0.265-0.133-0.399-0.201C63.961,20.782,63.983,20.733,64.009,20.684z"/>
		<path fill-rule="evenodd" clip-rule="evenodd" fill="none" d="M67.166,18.815c0.153,0,0.309,0,0.463,0
			c-0.001,0.042-0.002,0.084-0.004,0.126c-0.154-0.018-0.308-0.038-0.463-0.056C67.164,18.862,67.164,18.839,67.166,18.815z"/>
		<path fill-rule="evenodd" clip-rule="evenodd" fill="none" d="M67.051,21.375c0.035-0.095,0.068-0.189,0.104-0.284
			c0.035,0.01,0.071,0.02,0.108,0.03c-0.033,0.117-0.068,0.234-0.102,0.351C67.125,21.44,67.089,21.408,67.051,21.375z"/>
		<path fill-rule="evenodd" clip-rule="evenodd" fill="none" d="M64.808,21.224c-0.109-0.033-0.218-0.067-0.326-0.1
			c0.005-0.035,0.011-0.068,0.018-0.102c0.121,0.023,0.243,0.047,0.364,0.07C64.845,21.136,64.826,21.18,64.808,21.224z"/>
		<path fill-rule="evenodd" clip-rule="evenodd" fill="none" d="M65.038,18.685c-0.057,0.082-0.112,0.164-0.167,0.246
			c-0.036-0.021-0.071-0.042-0.106-0.064c0.055-0.091,0.109-0.184,0.163-0.275C64.963,18.623,65.001,18.654,65.038,18.685z"/>
		<path fill-rule="evenodd" clip-rule="evenodd" fill="none" d="M66.067,18.131c-0.068,0.056-0.138,0.112-0.208,0.168
			c-0.025-0.028-0.049-0.057-0.073-0.085c0.068-0.058,0.138-0.116,0.206-0.173C66.019,18.07,66.045,18.099,66.067,18.131z"/>
		<path fill-rule="evenodd" clip-rule="evenodd" fill="none" d="M123.234,14.383c0.504-0.362,0.983-0.333,1.316,0.079
			c0.332,0.409,0.249,0.907-0.214,1.289l-0.015-0.018c0.039-0.295-0.165-0.579,0.062-0.902c0.118-0.168-0.12-0.397-0.368-0.411
			c-0.234-0.014-0.471,0.019-0.708,0.032C123.283,14.429,123.258,14.406,123.234,14.383z"/>
		<path fill-rule="evenodd" clip-rule="evenodd" fill="none" d="M124.336,15.751c-0.358,0.37-0.714,0.303-1.066-0.01l-0.007,0.007
			c0.368,0.007,0.335-0.347,0.473-0.589c0.215,0.211,0.401,0.392,0.586,0.574L124.336,15.751z"/>
		<path fill-rule="evenodd" clip-rule="evenodd" fill="none" d="M123.27,15.741c-0.497-0.533-0.503-0.803-0.036-1.358
			c0.024,0.023,0.049,0.047,0.073,0.07c-0.015,0.432-0.029,0.863-0.044,1.296L123.27,15.741z"/>
		<path fill-rule="evenodd" clip-rule="evenodd" fill="#E20E18" d="M123.263,15.748c0.015-0.432,0.029-0.864,0.044-1.296
			c0.237-0.013,0.473-0.046,0.708-0.032c0.248,0.014,0.486,0.243,0.368,0.411c-0.227,0.322-0.022,0.607-0.062,0.902
			c-0.184-0.182-0.371-0.363-0.586-0.574C123.598,15.402,123.631,15.755,123.263,15.748z"/>
	</g>
</g>
</svg>
