<?xml version="1.0" encoding="utf-8"?>
<!-- Generator: Adobe Illustrator 20.1.0, SVG Export Plug-In . SVG Version: 6.00 Build 0)  -->
<svg version="1.1" id="logos" xmlns="http://www.w3.org/2000/svg" xmlns:xlink="http://www.w3.org/1999/xlink" x="0px" y="0px"
	 viewBox="0 0 125 40" enable-background="new 0 0 125 40" xml:space="preserve">
<g>
	<g>
		<g>
			<path fill="#FF004F" d="M30.605,11.496v4.492c-5.25,0-8.432-2.692-8.432-2.692v12.331c0,6.123-4.963,11.086-11.086,11.086
				c-2.479,0-4.768-0.814-6.615-2.19c2.031,2.292,4.995,3.738,8.298,3.738c6.123,0,11.086-4.963,11.086-11.086V14.843
				c0,0,3.183,2.692,8.432,2.692V11.68C31.735,11.68,31.169,11.616,30.605,11.496z"/>
			<path fill="#FF004F" d="M11.189,20.514c-2.817,0-5.1,2.283-5.1,5.1c0,1.898,1.038,3.553,2.576,4.431
				c-0.563-0.82-0.893-1.813-0.893-2.883c0-2.817,2.283-5.1,5.1-5.1c0.739,0,1.479,0.185,1.479,0.185l0.036-6.041
				c-0.528-0.077-1.068-0.117-1.617-0.117c-0.025,0-0.049,0.002-0.074,0.002l-0.027,4.609
				C12.668,20.699,11.927,20.514,11.189,20.514z"/>
			<path fill="#00F2EA" d="M12.872,32.262c2.817,0,5.1-2.283,5.1-5.1V3.287h4.336c-0.087-0.492-0.135-1.008-0.135-1.548h-5.883
				v23.875c0,2.817-2.283,5.1-5.1,5.1c-0.919,0-1.78-0.244-2.524-0.669C9.584,31.384,11.125,32.262,12.872,32.262z"/>
			<path fill="#00F2EA" d="M30.605,11.496v-1.364c-1.647,0-3.419-0.549-4.912-1.592C26.979,10.099,28.785,11.106,30.605,11.496z"/>
			<path fill="#00F2EA" d="M12.695,16.09l0.008-1.433c-0.528-0.077-1.068-0.117-1.617-0.117C4.963,14.541,0,19.504,0,25.627
				c0,3.643,1.758,6.876,4.471,8.897c-1.734-1.956-2.789-4.529-2.789-7.349C1.683,21.077,6.606,16.13,12.695,16.09z"/>
			<path d="M25.693,8.54c-1.114-1.351-1.838-3.115-1.838-5.252h-1.547h-4.336v23.875c0,2.817-2.283,5.1-5.1,5.1
				c-1.747,0-3.287-0.878-4.207-2.217c-1.538-0.878-2.576-2.533-2.576-4.431c0-2.817,2.283-5.1,5.1-5.1
				c0.739,0,1.479,0.185,1.479,0.185l0.027-4.609C6.607,16.13,1.683,21.077,1.683,27.175c0,2.82,1.055,5.392,2.789,7.349
				c1.847,1.375,4.136,2.19,6.615,2.19c6.123,0,11.086-4.963,11.086-11.086V13.295c0,0,3.182,2.692,8.432,2.692v-4.492
				C28.785,11.106,26.979,10.099,25.693,8.54z"/>
		</g>
		<g>
			<polygon points="38.816,16.492 43.46,16.492 43.46,31.804 48.053,31.804 48.053,16.492 51.839,16.492 53.219,12.488 
				38.816,12.488 			"/>
			<rect x="54.237" y="18.528" width="4.594" height="13.276"/>
			<circle cx="56.408" cy="14.784" r="2.297"/>
			<polygon points="71.021,31.804 75.968,31.804 69.423,22.587 75.228,17.081 69.81,17.081 65.083,21.629 65.083,12.488 
				60.698,12.488 60.698,31.804 65.083,31.804 65.083,26.703 66.559,25.303 			"/>
			<polygon points="77.146,16.492 81.79,16.492 81.79,31.804 86.384,31.804 86.384,16.492 90.17,16.492 91.549,12.488 
				77.146,12.488 			"/>
			<polygon points="120.053,31.804 125,31.804 118.455,22.587 124.26,17.081 118.842,17.081 114.114,21.629 114.114,12.488 
				109.73,12.488 109.73,31.804 114.114,31.804 114.114,26.703 115.591,25.303 			"/>
		</g>
		<path d="M99.01,16.097c-4.406,0-7.978,3.516-7.978,7.854s3.572,7.854,7.978,7.854c4.406,0,7.978-3.516,7.978-7.854
			S103.416,16.097,99.01,16.097z M99.01,27.888c-2.209,0-4-1.763-4-3.938c0-2.175,1.791-3.938,4-3.938c2.209,0,4,1.763,4,3.938
			C103.01,26.125,101.219,27.888,99.01,27.888z"/>
		<g>
			<path fill="#00F2EA" d="M91.032,23.951c0-4.146,3.265-7.54,7.401-7.831c-0.196-0.015-0.394-0.023-0.594-0.023
				c-4.406,0-7.978,3.516-7.978,7.854s3.572,7.854,7.978,7.854c0.2,0,0.398-0.008,0.594-0.023
				C94.297,31.49,91.032,28.097,91.032,23.951z"/>
			<path fill="#FF004F" d="M100.137,16.097c-0.193,0-0.384,0.007-0.574,0.021c4.148,0.28,7.425,3.679,7.425,7.833
				s-3.277,7.553-7.425,7.833c0.189,0.014,0.381,0.021,0.574,0.021c4.406,0,7.978-3.516,7.978-7.854S104.543,16.097,100.137,16.097z
				"/>
			<path d="M98.433,31.782c0.191,0.013,0.383,0.023,0.577,0.023c0.186,0,0.37-0.009,0.553-0.021
				c-0.194-0.014-0.386-0.034-0.575-0.061C98.805,31.748,98.62,31.768,98.433,31.782z"/>
			<path d="M99.563,16.118c-0.183-0.012-0.367-0.021-0.553-0.021c-0.194,0-0.386,0.009-0.577,0.023
				c0.187,0.014,0.372,0.034,0.555,0.06C99.178,16.152,99.37,16.132,99.563,16.118z"/>
			<path d="M106.988,23.951c0-4.154-3.277-7.553-7.425-7.833c-0.194,0.014-0.386,0.034-0.575,0.061
				c-0.183-0.026-0.368-0.046-0.555-0.06c-4.137,0.291-7.401,3.685-7.401,7.831s3.265,7.54,7.401,7.831
				c0.187-0.014,0.372-0.034,0.555-0.06c0.19,0.027,0.382,0.047,0.575,0.061C103.711,31.503,106.988,28.105,106.988,23.951z
				 M99.01,27.888c-2.209,0-4-1.763-4-3.938c0-2.175,1.791-3.938,4-3.938c2.209,0,4,1.763,4,3.938
				C103.01,26.125,101.219,27.888,99.01,27.888z"/>
		</g>
	</g>
	<rect x="0" y="0" fill="none" width="125" height="40"/>
</g>
</svg>
